<svg id="icons" xmlns="http://www.w3.org/2000/svg" viewBox="0 0 128 128"><defs><style>.cls-1{fill:#3bf29f;}.cls-2{fill:#16c5aa;}.cls-3{fill:#fff;}.cls-4{fill:#d4f5dd;}.cls-5{fill:none;stroke:#302f33;stroke-linecap:round;stroke-linejoin:round;stroke-width:4px;}</style></defs><title>watering-can</title><path class="cls-1" d="M94.31,36.34,94,32,82.2,33.18,60.67,35.33a7.994,7.994,0,0,0-7.18,7.35L53.38,44l-1.4,18.21-.55,7.2L28,51,21,38l-4.3,7.04L10,56l13,3,5.46,5.86L50,88a4,4,0,0,0,0,8H98a4,4,0,0,0,0-8l-.35-4.95a26.841,26.841,0,0,0,10.51-5.79C113.94,72.14,118,64.23,118,54,118,37.97,105.9,30.48,94.31,36.34Zm14.37,25.97A20.091,20.091,0,0,1,97.06,74.85L95.53,53.5l-.57-8.03a11.605,11.605,0,0,1,7.23-3.12,6.442,6.442,0,0,1,2.5.49C108.01,44.22,110,48.39,110,54A25.813,25.813,0,0,1,108.68,62.31Z"/><path class="cls-2" d="M28.43,61.99c.69-4.87.97-8.27-4.07-10.79-3.03-1.51-5.2-2.25-7.16-5.34-.17-.27-.34-.55-.5-.82L10,56l3.813.88c-1.29,1.909-1.691,4-.562,5.438,1.968,2.511.537,5.934,3.728,7.1,4.095,1.495,3.9-1.789,2.136-4.889-1.28-2.253,2.462-2.707,3.141-5.7L23,59l5.46,5.86A11.052,11.052,0,0,1,28.43,61.99Z"/><path class="cls-3" d="M60.67,35.33a7.994,7.994,0,0,0-7.18,7.35L53.38,44l-1.4,18.21a9.781,9.781,0,0,0,5.24-.61,7.114,7.114,0,0,0,4.17-3.73c1.09-2.55-.54-4.07-.18-6.37.73-4.69,12.67-.69,13.92-7.6.53-2.95-1.21-2.52,2.29-5.84.83-.79,1.93-1.29,2.77-2.11a9.362,9.362,0,0,0,2.01-2.77Z"/><path class="cls-2" d="M110.44,66.73a9.569,9.569,0,0,0-1.76-4.42A20.091,20.091,0,0,1,97.06,74.85L95.53,53.5c-3.4.59-5.5,4.95-6.57,8.41-.97,3.14-1.51,5.57-4.88,6.98-1.54.64-3.28.77-4.86,1.29a11.065,11.065,0,0,0-6.97,6.08,8.482,8.482,0,0,0-.06,7.04c1.83,4.12,6.94,6.62,3.47,11.51-.3.42-.61.82-.92,1.19H98a4,4,0,0,0,0-8l-.35-4.95a26.841,26.841,0,0,0,10.51-5.79C107.67,73.58,110.74,70.56,110.44,66.73Z"/><line class="cls-4" x1="28" y1="51" x2="23" y2="59"/><rect class="cls-5" x="46" y="88" width="56" height="8" rx="4" ry="4"/><path class="cls-5" d="M118,54c0,15.77-9.64,26.02-20.35,29.05l-.59-8.2C104.1,72.14,110,64.76,110,54c0-5.61-1.99-9.78-5.31-11.16a6.442,6.442,0,0,0-2.5-.49,11.605,11.605,0,0,0-7.23,3.12l-.65-9.13C105.9,30.48,118,37.97,118,54Z"/><line class="cls-5" x1="53.38" y1="44" x2="94.567" y2="40"/><line class="cls-5" x1="28" y1="51" x2="23" y2="59"/><path class="cls-5" d="M22.28,58.83,23,59,50,88H98l-.35-4.95-.59-8.2-2.1-29.38-.65-9.13L94,32,60.67,35.33a7.994,7.994,0,0,0-7.18,7.35L51.43,69.41,28,51,21,38,10,56l3.81.88"/><path class="cls-2" d="M20.708,72.458c-1.17-2.925,2.5-1.667,2.125-.458S21.458,74.333,20.708,72.458Z"/></svg>